<svg xmlns="http://www.w3.org/2000/svg" viewBox="0 0 1600 900" preserveAspectRatio="xMidYMid slice">
  <defs>
    <radialGradient id="core" cx="50%" cy="50%" r="60%">
      <stop offset="0%" stop-color="#3b2a63" />
      <stop offset="35%" stop-color="#1b1638" />
      <stop offset="100%" stop-color="#05030f" />
    </radialGradient>
    <radialGradient id="nebula" cx="50%" cy="50%" r="50%">
      <stop offset="0%" stop-color="#6d4bd8" stop-opacity="0.55" />
      <stop offset="100%" stop-color="#6d4bd8" stop-opacity="0" />
    </radialGradient>
  </defs>
  <rect width="1600" height="900" fill="url(#core)" />
  <ellipse cx="800" cy="450" rx="520" ry="200" fill="url(#nebula)" transform="rotate(-18 800 450)" />
  <ellipse cx="560" cy="300" rx="220" ry="120" fill="#4531a0" opacity="0.18" transform="rotate(24 560 300)" />
  <ellipse cx="1080" cy="620" rx="260" ry="130" fill="#2a6db0" opacity="0.15" transform="rotate(-10 1080 620)" />
  <g fill="#ffffff">
    <circle cx="120" cy="80" r="1.6" opacity="0.8" />
    <circle cx="300" cy="180" r="1.1" opacity="0.6" />
    <circle cx="470" cy="90" r="1.8" opacity="0.9" />
    <circle cx="640" cy="220" r="1.0" opacity="0.5" />
    <circle cx="810" cy="120" r="2.0" opacity="1" />
    <circle cx="980" cy="200" r="1.2" opacity="0.7" />
    <circle cx="1150" cy="90" r="1.5" opacity="0.8" />
    <circle cx="1320" cy="210" r="1.1" opacity="0.6" />
    <circle cx="1480" cy="120" r="1.7" opacity="0.9" />
    <circle cx="90" cy="360" r="1.3" opacity="0.7" />
    <circle cx="250" cy="470" r="1.9" opacity="0.9" />
    <circle cx="420" cy="560" r="1.0" opacity="0.5" />
    <circle cx="700" cy="500" r="1.4" opacity="0.75" />
    <circle cx="900" cy="620" r="1.1" opacity="0.6" />
    <circle cx="1120" cy="470" r="2.1" opacity="1" />
    <circle cx="1300" cy="560" r="1.2" opacity="0.7" />
    <circle cx="1500" cy="470" r="1.6" opacity="0.85" />
    <circle cx="160" cy="720" r="1.5" opacity="0.8" />
    <circle cx="360" cy="820" r="1.0" opacity="0.5" />
    <circle cx="540" cy="760" r="1.8" opacity="0.9" />
    <circle cx="760" cy="840" r="1.1" opacity="0.6" />
    <circle cx="980" cy="790" r="1.3" opacity="0.7" />
    <circle cx="1200" cy="840" r="1.7" opacity="0.9" />
    <circle cx="1420" cy="760" r="1.2" opacity="0.65" />
  </g>
  <text x="800" y="460" fill="#c7bfff" opacity="0.35" font-family="monospace" font-size="34"
        text-anchor="middle" letter-spacing="6">PLACEHOLDER GALAXY MAP</text>
</svg>
